<svg width="58" height="9" xmlns="http://www.w3.org/2000/svg"><g stroke="#B69F58" stroke-width=".5" fill="none" fill-rule="evenodd"><path fill="#B69F58" d="M4.15 6.545L1.585 7.894l.49-2.856L0 3.015 2.868 2.6 4.15 0l1.283 2.599 2.867.416-2.075 2.023.49 2.856zM16.514 6.545l-2.565 1.349.49-2.856-2.075-2.023L15.23 2.6 16.514 0l1.282 2.599 2.868.416-2.075 2.023.49 2.856zM28.877 6.545l-2.565 1.349.49-2.856-2.075-2.023 2.868-.416L28.877 0l1.283 2.599 2.867.416-2.075 2.023.49 2.856zM41.241 6.545l-2.565 1.349.49-2.856-2.075-2.023 2.868-.416L41.24 0l1.282 2.599 2.868.416-2.075 2.023.49 2.856z"/><path d="M53.605 6.545L51.04 7.894l.49-2.856-2.075-2.023 2.867-.416L53.605 0l1.282 2.599 2.868.416-2.075 2.023.49 2.856z"/></g></svg>